# xmcd
#
# Track frame offsets:
#	150
#	13433
#	25168
#	37290
#	51973
#	65678
#	80088
#	93183
#	108635
#	122578
#	135560
#	149313
#
# Disc length: 2172 seconds
#
# Revision: 1
# Processed by: cddbd v1.5.2PL0 Copyright (c) Steve Scherf et al.
# Submitted via: audiograbber 1.83.01
#
DISCID=b0087a0c
DTITLE=Memphis Willie B. - Introducing Memphis Willie B.
DYEAR=1900
DGENRE=Blues
TTITLE0=Brownsville Blues
TTITLE1=Country Girl Blues
TTITLE2=Highway 61
TTITLE3=Bad Girl Blues
TTITLE4=The Stuff Is Here
TTITLE5=Overseas Blues
TTITLE6=Stop Cryin' Blues
TTITLE7=Worried Man Blues
TTITLE8=Mailman Blues
TTITLE9=Everyday I have the Blues
TTITLE10=Mattie Mae
TTITLE11=Grief Will Kill You
EXTD=http://www.allmusic.com/cg/amg.dll?p=amg&token=&sql=10:7i68mpv39fco
EXTT0=
EXTT1=
EXTT2=
EXTT3=
EXTT4=
EXTT5=
EXTT6=
EXTT7=
EXTT8=
EXTT9=
EXTT10=
EXTT11=
PLAYORDER=
